:FULLY-SPECIFIED
:FORCE-ALL-JOINTS-BE-3DOF
:DEGREES
2141
root -2.37636 15.2914 -1.17127 902.076 6.17761 188.502
lfemur -55.5852 19.5202 -24.0298
ltibia 38.2857 0 0
lfoot 8.92042 20.7051 0
ltoes 7.2362 0 0
rfemur 4.57146 -4.09535 26.363
rtibia 41.4122 0 0
rfoot -17.4972 6.74163 0
rtoes -30.7419 0 0
lowerback 9.51232 0.813672 0.625038
upperback -2.21533 1.49532 3.88869
thorax -7.64076 0.847439 3.58445
lowerneck -6.31998 -1.01613 -5.70449
upperneck 9.66539 -1.23709 3.1146
head 4.19725 -0.658048 1.8863
lclavicle -3.43979e-14 -5.06987e-14 0
lhumerus 64.8139 -8.49079 97.6678
lradius 12.0654 0 0
lwrist -61.4622 0 0
lhand -38.1577 445.048 0
lfingers 7.12502 0 0
lthumb -11.1912 -211.607 0
rclavicle -3.43979e-14 -5.06987e-14 0
rhumerus -61.7714 21.1459 -101.861
rradius 121.933 0 0
rwrist -98.3813 0 0
rhand 1.36491 -391.078 0
rfingers 7.12502 0 0
rthumb 24.7664 313.997 0
2142
root -2.35991 15.3042 -1.45281 901.649 5.6342 188.364
lfemur -54.9394 19.3058 -24.1005
ltibia 38.5829 0 0
lfoot 8.0594 20.8774 0
ltoes 6.61085 0 0
rfemur 3.61282 -4.0997 25.9295
rtibia 41.5137 0 0
rfoot -16.4654 6.75572 0
rtoes -30.0754 0 0
lowerback 9.66016 0.741685 0.350768
upperback -2.14875 1.35003 3.88952
thorax -7.6374 0.783716 3.77023
lowerneck -6.3958 -1.04616 -5.69312
upperneck 9.98647 -1.29928 3.0904
head 4.29918 -0.694203 1.86186
lclavicle -3.43703e-14 -4.95713e-14 0
lhumerus 65.5663 -9.50381 97.13
lradius 12.3864 0 0
lwrist -61.0058 0 0
lhand -38.324 447.056 0
lfingers 7.12502 0 0
lthumb -11.3516 -206.636 0
rclavicle -3.43703e-14 -4.95713e-14 0
rhumerus -61.7337 20.9987 -101.602
rradius 123.504 0 0
rwrist -98.7428 0 0
rhand 3.71321 -390.811 0
rfingers 7.12502 0 0
rthumb 26.7281 316.319 0
2143
root -2.34415 15.3177 -1.71521 901.216 5.07028 188.214
lfemur -54.2297 19.0655 -24.1619
ltibia 38.9546 0 0
lfoot 7.17298 21.0225 0
ltoes 5.90953 0 0
rfemur 2.576 -4.08663 25.4878
rtibia 41.6463 0 0
rfoot -15.4194 6.74299 0
rtoes -29.3532 0 0
lowerback 9.81207 0.671686 0.0720727
upperback -2.07826 1.20627 3.8868
thorax -7.63197 0.720641 3.95457
lowerneck -6.4681 -1.08367 -5.68284
upperneck 10.3027 -1.37191 3.07077
head 4.39944 -0.735577 1.8389
lclavicle -3.42729e-14 -4.83743e-14 0
lhumerus 66.1643 -10.5595 96.5976
lradius 12.8305 0 0
lwrist -60.4248 0 0
lhand -38.4558 448.53 0
lfingers 7.12502 0 0
lthumb -11.4786 -202.467 0
rclavicle -3.42729e-14 -4.83743e-14 0
rhumerus -61.5498 20.8395 -101.269
rradius 125.003 0 0
rwrist -99.0083 0 0
rhand 6.10737 -390.552 0
rfingers 7.12502 0 0
rthumb 28.7301 318.661 0
2144
root -2.32899 15.3319 -1.95997 900.778 4.48649 188.053
lfemur -53.4584 18.8006 -24.214
ltibia 39.3957 0 0
lfoot 6.26252 21.1428 0
ltoes 5.13608 0 0
rfemur 1.46432 -4.05804 25.0381
rtibia 41.8088 0 0
rfoot -14.3607 6.70551 0
rtoes -28.5786 0 0
lowerback 9.96767 0.60372 -0.210955
upperback -2.00422 1.06413 3.88052
thorax -7.62468 0.658271 4.13739
lowerneck -6.53659 -1.12863 -5.67393
upperneck 10.6138 -1.45491 3.05577
head 4.49795 -0.782135 1.81748
lclavicle -3.4107e-14 -4.71115e-14 0
lhumerus 66.6104 -11.6538 96.0711
lradius 13.3934 0 0
lwrist -59.7223 0 0
lhand -38.5536 449.501 0
lfingers 7.12502 0 0
lthumb -11.5729 -199.065 0
rclavicle -3.4107e-14 -4.71115e-14 0
rhumerus -61.2241 20.6678 -100.867
rradius 126.428 0 0
rwrist -99.1769 0 0
rhand 8.53968 -390.302 0
rfingers 7.12502 0 0
rthumb 30.7659 321.017 0
2145
root -2.31431 15.3466 -2.18861 900.336 3.88347 187.88
lfemur -52.6275 18.5122 -24.2568
ltibia 39.9009 0 0
lfoot 5.32938 21.2405 0
ltoes 4.29428 0 0
rfemur 0.281119 -4.01583 24.5809
rtibia 42.0004 0 0
rfoot -13.2914 6.64531 0
rtoes -27.7547 0 0
lowerback 10.1266 0.537833 -0.49822
upperback -1.92698 0.923693 3.87065
thorax -7.61575 0.596666 4.31856
lowerneck -6.60102 -1.18102 -5.66671
upperneck 10.9192 -1.54821 3.04549
head 4.59459 -0.833838 1.79768
lclavicle -3.38736e-14 -4.57872e-14 0
lhumerus 66.907 -12.7829 95.5515
lradius 14.0709 0 0
lwrist -58.9015 0 0
lhand -38.6181 450.001 0
lfingers 7.12502 0 0
lthumb -11.635 -196.399 0
rclavicle -3.38736e-14 -4.57872e-14 0
rhumerus -60.7607 20.4832 -100.399
rradius 127.775 0 0
rwrist -99.248 0 0
rhand 11.0024 -390.061 0
rfingers 7.12502 0 0
rthumb 32.8287 323.378 0
2146
root -2.30003 15.3617 -2.40264 899.892 3.26186 187.697
lfemur -51.7391 18.2014 -24.2902
ltibia 40.4651 0 0
lfoot 4.3749 21.3176 0
ltoes 3.38796 0 0
rfemur -0.97029 -3.96189 24.1165
rtibia 42.2199 0 0
rfoot -12.2131 6.56447 0
rtoes -26.8847 0 0
lowerback 10.2885 0.474069 -0.789629
upperback -1.84688 0.785056 3.85719
thorax -7.6054 0.535886 4.49798
lowerneck -6.66113 -1.24081 -5.66146
upperneck 11.2186 -1.65176 3.03999
head 4.68928 -0.890651 1.77955
lclavicle -3.3574e-14 -4.44052e-14 0
lhumerus 67.0568 -13.9428 95.0396
lradius 14.8589 0 0
lwrist -57.9654 0 0
lhand -38.6497 450.06 0
lfingers 7.12502 0 0
lthumb -11.6654 -194.435 0
rclavicle -3.3574e-14 -4.44052e-14 0
rhumerus -60.1642 20.2853 -99.8684
rradius 129.043 0 0
rwrist -99.2207 0 0
rhand 13.4879 -389.83 0
rfingers 7.12502 0 0
rthumb 34.912 325.741 0
2147
root -2.28602 15.3771 -2.60355 899.446 2.62231 187.503
lfemur -50.7954 17.8694 -24.3143
ltibia 41.0831 0 0
lfoot 3.40045 21.3765 0
ltoes 2.42091 0 0
rfemur -2.28658 -3.89813 23.6452
rtibia 42.4664 0 0
rfoot -11.1277 6.46502 0
rtoes -25.9717 0 0
lowerback 10.4529 0.412474 -1.08509
upperback -1.76427 0.648304 3.84009
thorax -7.59383 0.475989 4.67553
lowerneck -6.71663 -1.30796 -5.65848
upperneck 11.5116 -1.76551 3.03935
head 4.78192 -0.952537 1.76316
lclavicle -3.32092e-14 -4.29696e-14 0
lhumerus 67.0622 -15.1295 94.5361
lradius 15.7529 0 0
lwrist -56.9172 0 0
lhand -38.6491 449.71 0
lfingers 7.12502 0 0
lthumb -11.6647 -193.141 0
rclavicle -3.32092e-14 -4.29696e-14 0
rhumerus -59.4388 20.0736 -99.2778
rradius 130.227 0 0
rwrist -99.0944 0 0
rhand 15.9884 -389.609 0
rfingers 7.12502 0 0
rthumb 37.0092 328.098 0
2148
root -2.2722 15.3926 -2.79286 899.001 1.96545 187.298
lfemur -49.7985 17.5174 -24.329
ltibia 41.7497 0 0
lfoot 2.40739 21.4193 0
ltoes 1.39694 0 0
rfemur -3.66442 -3.82645 23.1672
rtibia 42.739 0 0
rfoot -10.037 6.34903 0
rtoes -25.0188 0 0
lowerback 10.6196 0.353094 -1.3845
upperback -1.6795 0.513524 3.81936
thorax -7.58126 0.417036 4.85111
lowerneck -6.76727 -1.38244 -5.65807
upperneck 11.7977 -1.88938 3.04363
head 4.87239 -1.01946 1.74857
lclavicle -3.27803e-14 -4.14843e-14 0
lhumerus 66.9257 -16.339 94.0419
lradius 16.7488 0 0
lwrist -55.76 0 0
lhand -38.6167 448.981 0
lfingers 7.12502 0 0
lthumb -11.6334 -192.483 0
rclavicle -3.27803e-14 -4.14843e-14 0
rhumerus -58.5889 19.8477 -98.6307
rradius 131.326 0 0
rwrist -98.8681 0 0
rhand 18.4961 -389.399 0
rfingers 7.12502 0 0
rthumb 39.1137 330.443 0
2149
root -2.25846 15.4081 -2.97207 898.558 1.29192 187.082
lfemur -48.7506 17.1465 -24.3343
ltibia 42.4596 0 0
lfoot 1.39706 21.4483 0
ltoes 0.319864 0 0
rfemur -5.10049 -3.74875 22.6831
rtibia 43.0366 0 0
rfoot -8.94266 6.21854 0
rtoes -24.0293 0 0
lowerback 10.7881 0.295973 -1.68778
upperback -1.59292 0.380804 3.79497
thorax -7.56792 0.359085 5.02462
lowerneck -6.81278 -1.46423 -5.66051
upperneck 12.0766 -2.02331 3.05293
head 4.96061 -1.09138 1.73585
lclavicle -3.22886e-14 -3.99536e-14 0
lhumerus 66.6498 -17.5674 93.5578
lradius 17.8424 0 0
lwrist -54.497 0 0
lhand -38.5533 447.904 0
lfingers 7.12502 0 0
lthumb -11.572 -192.43 0
rclavicle -3.22886e-14 -3.99536e-14 0
rhumerus -57.6188 19.607 -97.9304
rradius 132.336 0 0
rwrist -98.5412 0 0
rhand 21.0035 -389.2 0
rfingers 7.12502 0 0
rthumb 41.2189 332.77 0
2150
root -2.2447 15.4234 -3.1427 898.117 0.60236 186.856
lfemur -47.6538 16.7579 -24.3302
ltibia 43.2078 0 0
lfoot 0.370837 21.4655 0
ltoes -0.806516 0 0
rfemur -6.59146 -3.66693 22.193
rtibia 43.3583 0 0
rfoot -7.84659 6.07561 0
rtoes -23.0062 0 0
lowerback 10.958 0.241157 -1.99483
upperback -1.50487 0.250232 3.76689
thorax -7.554 0.302196 5.19593
lowerneck -6.8529 -1.55329 -5.66611
upperneck 12.3479 -2.16725 3.0673
head 5.04647 -1.16827 1.72506
lclavicle -3.1735e-14 -3.83812e-14 0
lhumerus 66.237 -18.8108 93.0846
lradius 19.0293 0 0
lwrist -53.1312 0 0
lhand -38.4593 446.511 0
lfingers 7.12502 0 0
lthumb -11.4812 -192.947 0
rclavicle -3.1735e-14 -3.83812e-14 0
rhumerus -56.5329 19.3513 -97.1802
rradius 133.254 0 0
rwrist -98.1128 0 0
rhand 23.5027 -389.012 0
rfingers 7.12502 0 0
rthumb 43.3183 335.073 0
